<?xml version="1.0" encoding="UTF-8"?>
<!DOCTYPE svg PUBLIC "-//W3C//DTD SVG 1.1//EN" "http://www.w3.org/Graphics/SVG/1.1/DTD/svg11.dtd">
<!-- Creator: CorelDRAW X7 -->
<svg xmlns="http://www.w3.org/2000/svg" xml:space="preserve" width="2.5in" height="2.5in" version="1.1" style="shape-rendering:geometricPrecision; text-rendering:geometricPrecision; image-rendering:optimizeQuality; fill-rule:evenodd; clip-rule:evenodd"
viewBox="0 0 2500 2500"
 xmlns:xlink="http://www.w3.org/1999/xlink">
 <defs>
  <style type="text/css">
   <![CDATA[
    .str0 {stroke:black;stroke-width:6.94488}
    .fil0 {fill:none}
    .fil1 {fill:#D4584A}
   ]]>
  </style>
 </defs>
 <g id="Layer_x0020_1">
  <metadata id="CorelCorpID_0Corel-Layer"/>
  <rect class="fil0" width="2500" height="2500"/>
  <rect class="fil0 str0" x="1325" y="-1756" width="779" height="771"/>
  <g id="XMLID_996_">
   <g id="XMLID_41_">
    <path id="XMLID_4218_" class="fil1" d="M1473 809c8,7 18,11 28,11 10,0 20,-4 27,-11 16,-16 16,-41 0,-56l0 0c-15,-16 -40,-16 -56,0 -15,15 -15,40 0,55l1 1z"/>
    <path id="XMLID_4221_" class="fil1" d="M2105 1179l137 -136c11,-11 15,-28 9,-43 -7,-15 -21,-24 -37,-24l-283 0c-37,-152 -115,-290 -226,-401 -161,-161 -376,-250 -604,-250 -228,0 -443,89 -604,250 -162,162 -251,376 -251,604 0,229 89,443 251,605 48,48 100,89 157,124l-118 209c-7,12 -7,27 0,39 7,12 20,19 34,19l202 0c14,0 27,-7 34,-20l83 -147c69,17 140,26 212,26 72,0 143,-9 212,-26l83 147c7,13 20,20 34,20l202 0c14,0 27,-7 34,-19 7,-12 7,-27 0,-39l-118 -209c57,-35 109,-76 157,-124 111,-111 189,-249 226,-401l283 0c16,0 30,-10 37,-24 6,-15 2,-32 -9,-43l-137 -137zm-71 -39l-274 0 86 -86 274 0 -86 86zm-1285 957l-112 0 85 -151c30,14 60,27 91,38l-64 113zm816 0l-112 0 -63 -113c30,-11 60,-24 90,-38l85 151zm85 -369c-52,52 -110,96 -172,130 -1,1 -2,1 -2,1 -1,1 -1,1 -2,1 -47,27 -98,48 -150,63 -2,1 -4,1 -6,2 -70,20 -143,31 -217,31 -74,0 -147,-11 -217,-31 -2,-1 -4,-1 -6,-2 -52,-15 -102,-36 -150,-63 -1,0 -1,0 -2,-1 0,0 -1,0 -2,-1 -62,-34 -120,-78 -172,-130 -146,-146 -227,-341 -227,-549 0,-207 81,-402 227,-548 147,-147 342,-228 549,-228 207,0 402,81 549,228 96,96 165,215 200,345l-20 0c-11,0 -20,4 -28,11l-104 104c-10,-71 -33,-140 -68,-203 -11,-19 -35,-26 -53,-16 -19,11 -26,35 -16,54 37,67 58,140 63,214l-172 0c-9,-79 -44,-153 -101,-210 -67,-67 -156,-103 -250,-103 -94,0 -183,36 -249,103 -67,67 -104,155 -104,249 0,95 37,183 104,250 66,67 155,103 249,103 94,0 183,-36 250,-103 57,-57 92,-131 101,-210l172 0c-9,122 -61,241 -152,332 -99,99 -231,154 -371,154 -140,0 -272,-55 -371,-154 -100,-99 -154,-231 -154,-372 0,-140 54,-272 154,-371 164,-165 421,-201 625,-89 19,11 43,4 53,-15 10,-19 4,-43 -15,-53 -113,-62 -245,-87 -373,-70 -132,18 -251,77 -346,172 -114,114 -177,265 -177,426 0,162 63,313 177,427 114,114 266,177 427,177 161,0 313,-63 427,-177 93,-92 151,-209 170,-338l104 104c8,7 17,11 28,11l20 0c-35,130 -104,249 -200,345zm-421 -622c-11,-19 -35,-26 -53,-15l-95 54c-12,7 -19,20 -19,34 0,14 7,27 19,34l95 55c6,3 12,5 19,5 14,0 27,-7 34,-20 6,-11 7,-23 2,-34l142 0c-9,58 -35,112 -78,154l0 0c-52,52 -121,81 -194,81 -73,0 -142,-29 -194,-81 -52,-51 -80,-120 -80,-194 0,-73 28,-142 80,-194 52,-51 121,-80 194,-80 73,0 142,29 194,80 43,43 69,97 78,155l-142 0c5,-11 4,-23 -2,-34zm617 199l-86 -86 274 0 86 86 -274 0z"/>
   </g>
  </g>
 </g>
</svg>
