<?xml version="1.0" encoding="UTF-8"?>
<!DOCTYPE svg PUBLIC "-//W3C//DTD SVG 1.1//EN" "http://www.w3.org/Graphics/SVG/1.1/DTD/svg11.dtd">
<!-- Creator: CorelDRAW X7 -->
<svg xmlns="http://www.w3.org/2000/svg" xml:space="preserve" width="2.5in" height="2.5in" version="1.1" style="shape-rendering:geometricPrecision; text-rendering:geometricPrecision; image-rendering:optimizeQuality; fill-rule:evenodd; clip-rule:evenodd"
viewBox="0 0 2500 2500"
 xmlns:xlink="http://www.w3.org/1999/xlink">
 <defs>
  <style type="text/css">
   <![CDATA[
    .fil0 {fill:none}
    .fil1 {fill:#D4584A}
   ]]>
  </style>
 </defs>
 <g id="Layer_x0020_1">
  <metadata id="CorelCorpID_0Corel-Layer"/>
  <rect class="fil0" width="2500" height="2500"/>
  <g id="_2464875402480">
   <polygon class="fil1" points="688,1407 673,1411 657,1414 646,1418 638,1422 627,1426 619,1430 612,1434 604,1437 596,1441 589,1445 581,1449 577,1453 569,1456 566,1460 562,1464 554,1468 550,1472 547,1476 547,1483 550,1491 554,1495 558,1499 562,1502 566,1506 569,1514 573,1518 577,1521 581,1525 585,1529 589,1529 596,1525 600,1521 604,1518 612,1514 615,1510 623,1506 631,1502 638,1499 646,1495 654,1491 661,1487 673,1483 684,1479 699,1476 719,1472 807,1472 822,1476 837,1479 849,1483 860,1487 868,1491 875,1495 883,1499 891,1502 898,1506 906,1510 910,1514 917,1518 921,1521 925,1525 933,1529 937,1533 940,1537 944,1541 948,1544 952,1548 956,1552 959,1556 963,1560 967,1564 971,1567 975,1575 979,1579 982,1583 986,1590 990,1594 994,1602 998,1609 1001,1617 1005,1625 1009,1632 1013,1640 1017,1651 1021,1663 1024,1678 1028,1697 1028,1781 1024,1801 1021,1816 1017,1827 1013,1839 1009,1846 1005,1854 1001,1862 998,1869 994,1877 990,1885 986,1888 982,1896 979,1900 975,1904 971,1911 971,1915 975,1919 979,1923 982,1927 986,1931 994,1934 998,1938 1001,1942 1005,1946 1009,1950 1017,1953 1024,1953 1028,1950 1032,1946 1036,1938 1040,1934 1044,1931 1047,1923 1051,1919 1055,1911 1059,1904 1063,1896 1066,1888 1070,1881 1074,1873 1078,1862 1082,1854 1086,1843 1089,1827 1093,1812 1097,1793 1097,1686 1093,1667 1089,1651 1086,1636 1082,1625 1078,1617 1074,1606 1070,1598 1066,1590 1063,1583 1059,1575 1055,1567 1051,1564 1047,1556 1044,1548 1040,1544 1036,1541 1032,1533 1028,1529 1024,1525 1021,1521 1017,1514 1013,1510 1009,1506 1005,1502 1001,1499 998,1495 994,1491 990,1487 986,1483 979,1479 975,1476 971,1472 967,1468 959,1464 956,1460 952,1456 944,1453 937,1449 933,1445 925,1441 917,1437 910,1434 902,1430 894,1426 883,1422 875,1418 864,1414 849,1411 833,1407 814,1403 707,1403 "/>
   <polygon class="fil1" points="638,1602 638,1628 642,1632 742,1636 757,1640 761,1644 768,1644 768,1651 772,1655 776,1663 642,1667 638,1671 638,1697 642,1701 772,1705 768,1713 764,1716 761,1720 753,1724 745,1728 657,1732 654,1736 650,1743 650,1758 654,1762 657,1766 726,1770 738,1774 745,1778 749,1781 753,1785 757,1793 761,1801 764,1808 768,1816 772,1831 776,1846 780,1862 784,1877 787,1888 791,1900 795,1908 799,1911 803,1915 807,1919 826,1919 833,1915 837,1911 837,1881 833,1873 829,1858 826,1843 822,1827 818,1812 814,1801 810,1789 807,1781 803,1774 799,1766 795,1762 791,1758 791,1751 795,1747 799,1743 803,1739 807,1736 810,1732 814,1724 818,1716 822,1709 822,1701 860,1701 864,1697 864,1674 860,1671 856,1667 822,1667 822,1651 818,1640 814,1632 856,1632 860,1628 864,1625 864,1602 860,1598 642,1598 "/>
   <polygon class="fil1" points="493,1529 489,1533 485,1541 482,1544 478,1548 474,1556 470,1560 466,1567 462,1575 459,1583 455,1590 451,1598 447,1606 443,1617 439,1625 436,1636 432,1651 428,1667 424,1686 420,1736 420,1739 424,1793 428,1812 432,1827 436,1843 439,1854 443,1862 447,1873 451,1881 455,1888 459,1896 462,1904 466,1911 470,1915 474,1923 478,1931 482,1934 485,1938 489,1946 493,1950 497,1953 501,1957 504,1965 508,1969 512,1973 516,1976 520,1980 524,1984 527,1988 531,1992 535,1996 543,1999 547,2003 550,2007 554,2011 562,2015 566,2018 569,2022 577,2026 585,2030 589,2034 596,2038 604,2041 612,2045 619,2049 627,2053 638,2057 646,2061 657,2064 673,2068 688,2072 707,2076 814,2076 833,2072 849,2068 864,2064 875,2061 883,2057 894,2053 902,2049 910,2045 917,2041 925,2038 933,2034 940,2030 944,2026 952,2022 956,2018 959,2015 967,2011 971,2007 975,2003 975,1996 971,1988 967,1984 963,1980 959,1976 956,1973 952,1965 948,1961 944,1957 940,1953 937,1950 933,1950 925,1953 921,1957 917,1961 910,1965 906,1969 898,1973 891,1976 883,1980 875,1984 868,1988 860,1992 849,1996 837,1999 822,2003 803,2007 719,2007 699,2003 684,1999 673,1996 661,1992 654,1988 646,1984 638,1980 631,1976 623,1973 615,1969 612,1965 604,1961 600,1957 596,1953 589,1950 585,1946 581,1942 577,1938 573,1934 569,1931 566,1927 562,1923 558,1919 554,1915 550,1911 547,1904 543,1900 539,1896 535,1888 531,1885 527,1877 524,1869 520,1862 516,1854 512,1846 508,1839 504,1827 501,1816 497,1801 493,1785 493,1697 497,1678 501,1663 504,1651 508,1640 512,1632 516,1625 520,1617 524,1609 527,1602 531,1594 535,1590 539,1583 543,1579 547,1575 550,1567 550,1564 547,1560 543,1556 539,1552 535,1548 527,1544 524,1541 520,1537 516,1533 512,1529 504,1525 497,1525 "/>
   <path class="fil1" d="M1590 2045l4 -11 4 -8 8 -4 11 -4 31 -3 0 61 61 0 0 -61 61 0 0 61 61 0 0 -61 61 0 0 61 61 0 0 -62 31 4 12 4 7 4 4 8 4 15 0 57 -4 12 -4 8 -7 3 -16 4 -363 0 -11 -4 -8 -3 -4 -8 -4 -12 0 -61zm-61 -183l4 -12 4 -7 7 -4 12 -4 30 -4 0 61 62 0 0 -61 61 0 0 61 61 0 0 -61 61 0 0 61 61 0 0 -61 31 4 11 4 8 4 4 7 4 16 0 57 -4 11 -4 8 -8 4 -15 4 -363 0 -12 -4 -7 -4 -4 -8 -4 -11 0 -61zm-1158 -176l3 -23 4 -15 4 -16 4 -11 4 -12 4 -11 3 -12 4 -7 4 -8 4 -7 4 -8 4 -8 3 -7 4 -4 4 -8 4 -4 4 -7 3 -4 4 -8 4 -4 4 -3 4 -8 4 -4 3 -4 4 -4 4 -3 4 -4 4 -4 4 -8 7 -4 4 -3 4 -4 4 -4 3 -4 4 -4 4 -3 8 -4 4 -4 3 -4 8 -4 4 -4 8 -3 3 -4 8 -4 4 -4 7 -4 8 -4 8 -3 7 -4 8 -4 8 -4 11 -4 12 -3 11 -4 12 -4 15 -4 15 -4 23 -4 107 0 23 4 15 4 16 4 11 4 12 4 11 3 12 4 7 4 8 4 8 4 7 3 8 4 7 4 4 4 8 4 4 4 7 3 4 4 8 4 4 4 3 4 8 4 4 3 4 4 4 4 3 4 4 4 4 3 8 4 4 8 3 4 4 4 4 3 4 4 4 4 3 4 4 8 4 3 4 4 4 8 4 4 3 7 4 4 4 8 4 4 4 7 4 8 3 8 4 7 4 8 4 11 4 8 3 11 4 12 4 11 4 16 4 15 4 23 0 107 -4 23 -4 15 -4 15 -4 12 -4 11 -3 12 -4 7 -4 12 -4 8 -4 7 -3 8 -4 8 -4 7 -4 4 -4 8 -4 3 -3 8 -4 4 -4 8 -4 3 -4 4 -4 8 -3 4 -4 4 -4 3 -4 4 -4 4 -3 4 -4 7 -8 4 -4 4 -4 4 -3 4 -4 4 -4 3 -4 4 -8 4 -3 4 -4 4 -8 4 -4 3 -7 4 -4 4 -8 4 -4 4 -7 3 -8 4 -7 4 -8 4 -8 4 -11 4 -8 3 -11 4 -12 4 -11 4 -16 4 -15 4 -23 3 -107 0 -23 -3 -15 -4 -15 -4 -12 -4 -11 -4 -12 -4 -7 -3 -12 -4 -8 -4 -7 -4 -8 -4 -8 -4 -7 -3 -4 -4 -8 -4 -3 -4 -8 -4 -4 -3 -8 -4 -3 -4 -4 -4 -8 -4 -4 -4 -4 -3 -3 -4 -4 -4 -4 -4 -4 -4 -7 -4 -4 -7 -4 -4 -4 -4 -4 -4 -4 -3 -3 -4 -4 -4 -4 -8 -4 -4 -4 -3 -4 -8 -3 -4 -4 -8 -4 -3 -4 -8 -4 -4 -3 -7 -4 -8 -4 -8 -4 -7 -4 -8 -4 -8 -3 -11 -4 -12 -4 -11 -4 -12 -4 -15 -4 -15 -3 -23 0 -107zm1219 -8l4 -11 4 -8 8 -4 11 -4 31 -3 0 61 61 0 0 -61 61 0 0 61 61 0 0 -61 61 0 0 61 61 0 0 -62 31 4 12 4 7 4 4 8 4 15 0 57 -4 12 -4 7 -7 4 -16 4 -363 0 -11 -4 -8 -4 -4 -7 -4 -12 0 -61zm-11 -88l-8 4 -7 4 -4 4 -4 4 -4 3 -4 4 -4 4 -3 4 -4 4 -4 7 -4 8 -4 11 0 115 4 8 -11 0 -8 4 -8 3 -3 4 -4 4 -4 4 -4 4 -4 4 -4 3 -3 4 -4 8 -4 7 -4 12 -4 23 0 4 4 88 4 11 4 8 4 7 3 4 4 4 4 4 4 4 4 4 4 3 3 4 8 4 8 4 12 0 -5 7 0 115 -30 0 -23 -4 -12 -3 -7 -4 -8 -4 -4 -4 -4 -4 -3 -4 -4 -3 -4 -4 -4 -4 -4 -8 -4 -7 -3 -12 -4 -23 0 -405 4 -27 3 -11 4 -8 4 -8 4 -3 4 -4 4 -4 3 -4 4 -4 4 -3 4 -4 4 -4 3 -4 4 -4 4 -4 4 -3 4 -4 4 -4 3 -4 4 -4 4 -4 4 -3 4 -4 0 -111 550 0 0 111 4 4 4 3 4 4 4 4 3 4 4 4 4 4 4 3 4 4 3 4 4 4 4 4 4 4 4 3 4 4 3 4 4 4 4 4 4 3 4 8 4 8 3 11 4 27 0 405 -4 23 -3 12 -4 7 -4 8 -4 4 -4 4 -4 3 -3 4 -4 4 -4 4 -8 4 -7 4 -4 -108 -4 -11 -4 -8 -4 -7 -3 -4 -4 -4 -4 -4 -4 -4 -4 -3 -4 -4 -3 -4 -8 -4 -8 -4 -12 0 5 -7 0 -115 -4 -8 11 0 8 -4 8 -3 3 -4 4 -4 4 -4 4 -4 4 -3 4 -4 3 -4 4 -8 4 -7 4 -12 0 -115 -4 -11 -4 -8 -4 -7 -3 -4 -4 -4 -4 -4 -4 -4 -4 -3 -4 -4 -3 -4 -8 -4 -8 -4 -11 -4 -421 0 -11 4zm-176 -371l734 0 0 123 -734 0 0 -123zm-547 -53l-4 4 -3 4 -4 3 -4 4 -4 4 -4 4 -4 4 -3 3 -4 4 -4 4 -4 4 -4 4 -3 4 -4 3 -4 4 -4 4 -4 -69 69 4 -4 4zm291 -229l-4 15 -4 7 -4 12 -4 8 -3 7 -4 4 -4 8 -4 3 -4 8 -3 4 -4 4 -4 7 -4 4 -4 4 -4 4 -3 4 -8 4 -4 3 -4 4 -7 4 -4 4 -8 4 -4 3 -7 4 -8 4 -11 4 -8 4 -15 4 -16 3 -42 4 -146 4 5 -8 4 -15 4 -15 3 -8 4 -11 4 -8 4 -8 4 -3 3 -8 4 -4 4 -8 4 -3 4 -4 4 -8 3 -4 4 -3 4 -4 4 -4 8 -4 3 -4 4 -4 8 -3 4 -4 7 -4 4 -4 8 -4 7 -3 12 -4 8 -4 15 -4 15 -4 184 0 -4 16zm-631 -203l38 4 15 4 16 3 7 4 12 4 8 4 7 4 4 3 8 4 3 4 8 4 4 4 4 4 7 3 4 4 4 4 4 4 4 4 4 7 3 4 4 4 4 8 4 3 4 8 3 4 4 8 4 7 4 12 4 7 4 16 3 15 4 8 -149 -4 -38 -4 -15 -4 -16 -4 -7 -4 -12 -3 -7 -4 -8 -4 -4 -4 -8 -4 -3 -3 -8 -4 -4 -4 -4 -4 -7 -4 -4 -4 -4 -3 -4 -4 -4 -4 -3 -8 -4 -4 -4 -3 -4 -8 -4 -4 -4 -7 -3 -4 -4 -8 -4 -8 -4 -11 -4 -8 -4 -15 -3 -15 -4 -8 149 4zm631 -165l-4 16 -4 7 -4 12 -4 8 -3 7 -4 4 -4 8 -4 3 -4 8 -3 4 -4 4 -4 7 -4 4 -4 4 -4 4 -3 4 -8 4 -4 3 -4 4 -7 4 -4 4 -8 4 -4 3 -7 4 -8 4 -11 4 -8 4 -15 4 -16 3 -42 4 -146 4 5 -8 4 -15 4 -15 3 -8 4 -11 4 -8 4 -8 4 -3 3 -8 4 -4 4 -8 4 -3 4 -4 4 -8 3 -4 4 -3 4 -4 4 -4 8 -4 3 -4 4 -4 8 -3 4 -4 7 -4 4 -4 8 -4 7 -4 12 -3 8 -4 15 -4 15 -4 184 0 -4 15zm940 -11l-4 19 -3 19 -4 19 -4 19 -4 20 -4 19 -3 19 -4 19 -4 19 -4 19 -4 19 -4 19 -3 20 -4 19 0 19 -8 -4 -4 -4 -4 -4 -3 -4 -4 -3 -4 -4 -4 -4 -4 -4 -3 -4 -4 -3 -4 -4 -4 -4 -4 -4 -4 -4 -3 -4 -4 -3 -4 -4 -4 -4 -4 -4 -4 -4 -3 -4 -4 -3 -4 -4 -4 0 -4 4 -3 3 -4 4 -4 4 -4 4 -4 4 -4 4 -3 3 -4 4 -4 4 -4 4 -4 4 -4 4 -3 3 -4 4 -4 4 -4 4 -4 4 -3 3 -4 4 -4 4 -4 4 -4 4 -4 4 -3 3 -4 4 -4 4 -4 4 -4 4 -4 4 -3 3 -4 4 -4 4 -4 4 -4 4 -3 3 -4 4 -4 4 -4 4 -4 4 -4 4 -3 3 -4 4 -4 4 -4 4 -4 4 -4 4 -3 3 -4 4 -4 4 -4 4 -4 4 -3 3 -4 4 -4 4 -4 4 -4 4 -4 4 -3 3 -4 4 -4 4 -4 4 -4 4 -4 3 -3 4 -4 4 -4 4 -4 4 -4 4 -3 3 -4 4 -4 4 -4 4 -4 4 -4 4 -3 3 -4 4 -4 4 -4 4 -4 4 -4 3 -3 4 -4 4 -4 4 -4 4 -4 4 -3 3 -4 4 -4 4 -4 4 -4 4 -4 4 -3 3 -4 4 -4 4 -4 4 -4 4 -3 3 -4 4 -4 4 -4 4 -4 4 -4 4 -3 3 -153 0 -4 -3 -4 -4 -4 -4 -4 -4 -3 -4 -4 -4 -4 -3 -4 -4 -4 -4 -4 -4 -3 -4 -4 -3 -4 -4 -4 -4 -4 -4 -4 -4 -3 -4 -4 -3 -4 -4 -4 -4 -4 -4 -3 -4 -4 -4 -4 -3 -4 -4 -4 -4 -4 -4 -3 -4 -4 -3 -4 -4 -4 -4 -4 -4 -4 -4 -3 -4 -4 -3 -8 0 -4 3 -3 4 -4 4 -4 4 -4 4 -4 4 -4 3 -3 4 -4 4 -4 4 -4 4 -4 3 -4 4 -3 4 -4 4 -4 4 -4 4 -4 3 -3 4 -4 4 -4 4 -4 4 -4 4 -4 3 -3 4 -4 4 -4 4 -4 4 -4 3 -4 4 -3 4 -4 4 -4 4 -4 4 -4 3 -3 4 -4 4 -4 4 -4 4 -4 4 -4 3 -3 4 -4 4 -4 4 -4 4 -4 3 -4 4 -3 4 -4 4 -4 4 -4 4 -4 3 -3 4 -4 4 -4 4 -4 4 -4 4 -4 3 -3 4 -4 4 -4 4 -4 4 -4 3 -4 4 -3 4 -4 4 -4 4 -4 4 -4 3 -3 4 -4 4 -4 4 -4 4 -4 4 -4 3 -3 4 -4 4 -8 0 -7 -4 -12 -4 -8 -3 -11 -4 -15 -4 -12 -4 -15 -4 -19 -4 -4 -3 4 -4 4 -4 3 -4 4 -4 4 -4 4 -3 4 -4 4 -4 3 -4 4 -4 4 -3 4 -4 4 -4 3 -4 4 -4 4 -4 4 -3 4 -4 4 -4 3 -4 4 -4 4 -4 4 -3 4 -4 4 -4 3 -4 4 -4 4 -3 4 -4 4 -4 3 -4 31 -4 19 -4 15 -3 12 -4 11 -4 8 -4 8 -4 7 -4 8 -3 8 -4 7 -4 4 -4 8 -4 4 -3 3 -4 8 -4 4 -4 4 -4 3 -4 4 -3 4 -4 4 -4 4 -4 4 -4 3 -4 4 -3 4 -4 4 -8 4 -4 4 -3 3 -8 4 -4 4 -8 4 -7 4 -8 3 -8 4 -7 4 -8 4 -11 4 -12 4 -15 3 -19 4 -31 4 -4 4 -3 4 -4 4 -4 3 -4 4 -4 8 0 4 4 3 4 4 4 4 4 4 3 4 4 4 4 3 4 4 4 4 4 4 3 4 4 4 4 3 4 4 4 4 4 4 3 4 4 3 4 4 4 4 4 4 3 4 4 4 4 3 4 4 4 4 4 4 3 4 4 4 4 3 4 4 4 4 3 4 4 4 4 3 4 4 4 4 4 4 3 4 4 4 4 3 4 4 4 4 4 4 3 4 4 4 4 3 4 4 4 4 3 4 4 4 4 3 4 4 4 8 0 4 -4 4 -4 3 -4 4 -4 4 -3 4 -4 4 -4 4 -4 3 -4 4 -3 4 -4 4 -4 4 -4 3 -4 4 -4 4 -3 4 -4 4 -4 4 -4 3 -4 4 -4 4 -3 4 -4 4 -4 4 -4 3 -4 4 -3 4 -4 4 -4 4 -4 3 -4 4 -4 4 -3 4 -4 4 -4 4 -4 3 -4 4 -3 4 -4 4 -4 4 -4 3 -4 4 -4 4 -3 4 -4 4 -4 4 -4 3 -4 4 -4 4 -3 4 -4 4 -4 4 -4 3 -4 4 -3 4 -4 4 -4 4 -4 3 -4 4 -4 4 -3 4 -4 4 -4 4 -4 3 -4 4 -4 4 -3 4 -4 4 -4 4 -4 3 -4 4 -3 4 -4 4 -4 4 -4 3 -4 4 -4 4 -3 4 -4 4 -4 4 -4 3 -4 4 -4 4 -3 4 -4 4 -4 4 -4 3 -4 4 -3 4 -4 4 -4 4 -4 3 -4 4 -4 4 -3 4 -4 4 -4 4 -4 3 -4 4 -4 4 -3 4 -4 4 -4 4 -4 0 -4 -4 -3 -4 -4 -4 -4 -4 -4 -4 -4 -3 -4 -4 -3 -4 -4 -4 -4 -4 -4 -4 -4 -3 -4 -4 -3 -4 -4 -4 -4 -4 -4 -3 -4 -4 -3 -4 -4 -4 -4 -4 -4 -4 -4 -3 -7 19 0 19 -4 19 -4 19 -4 19 -4 19 -4 19 -3 20 -4 19 -4 19 -4 19 -4 19 -3 19 -4 19 -4 19 -4 19 -4 12 -3 -4 11 -4 19zm-1571 -191l38 4 15 3 16 4 7 4 12 4 8 4 7 4 4 3 8 4 3 4 8 4 4 4 4 4 7 3 4 4 4 4 4 4 4 4 4 7 3 4 4 4 4 8 4 3 4 8 3 4 4 8 4 7 4 12 4 7 4 16 3 15 4 8 -149 -4 -38 -4 -15 -4 -16 -4 -7 -4 -12 -3 -7 -4 -8 -4 -4 -4 -8 -4 -3 -4 -8 -3 -4 -4 -4 -4 -7 -4 -4 -4 -4 -3 -4 -4 -4 -4 -3 -8 -4 -4 -4 -3 -4 -8 -4 -4 -4 -8 -3 -3 -4 -8 -4 -8 -4 -11 -4 -8 -4 -15 -3 -15 -4 -8 149 4zm-214 11l4 19 3 16 4 11 4 12 4 7 4 8 4 8 3 7 4 8 4 8 4 3 4 8 4 4 3 4 4 7 4 4 4 4 4 4 3 4 4 3 4 4 4 4 4 4 4 4 3 4 4 3 8 4 4 4 4 4 7 4 4 3 8 4 7 4 8 4 8 4 7 4 8 3 11 4 12 4 15 4 19 4 199 0 -4 153 -4 -4 -3 -4 -4 -4 -4 -4 -4 -3 -4 -4 -4 -4 -3 -4 -4 -4 -8 -4 -4 -3 -3 -4 -8 -4 -4 -4 -8 -4 -7 -4 -8 -3 -8 -4 -7 -4 -8 -4 -11 -4 -12 -3 -15 -4 -19 -4 -260 0 0 76 4 19 3 16 4 11 4 12 4 7 4 8 4 8 3 7 4 8 4 8 4 3 4 8 4 4 3 4 4 7 4 4 4 4 4 4 3 4 4 3 4 4 4 4 4 4 4 4 3 4 4 3 8 4 4 4 4 4 7 4 4 4 8 3 7 4 8 4 8 4 7 4 8 3 11 4 12 4 15 4 19 4 199 0 0 306 -27 0 -26 3 -20 4 -15 4 -11 4 -16 4 -11 4 -8 3 -11 4 -8 4 -8 4 -11 4 -8 3 -3 4 -8 4 -8 4 -7 4 -4 4 -8 3 -8 4 -3 4 -8 4 -4 4 -4 4 -7 3 -4 4 -4 4 -4 4 -7 4 -4 3 -4 4 -4 4 -4 4 -4 4 -3 4 -4 3 -4 4 -4 4 -4 4 -3 4 -4 4 -4 3 -4 8 -4 4 -4 4 -3 3 -4 8 -4 4 -4 4 -4 7 -4 4 -3 8 -4 4 -4 7 -4 8 -4 4 -3 7 -4 8 -4 8 -4 7 -4 12 -4 8 -3 7 -4 12 -4 11 -4 12 -4 15 -4 15 -3 19 -4 23 0 123 4 22 3 20 4 15 4 15 4 12 4 11 4 12 3 7 4 8 4 11 4 8 4 8 4 7 3 8 4 4 4 7 4 8 4 4 3 8 4 3 4 8 4 4 4 4 4 7 3 4 4 4 4 4 4 7 4 4 4 4 3 4 4 4 4 4 4 3 4 4 3 4 4 4 4 4 4 3 4 4 4 4 7 4 4 4 4 4 4 3 7 4 4 4 4 4 8 4 3 4 8 3 4 4 8 4 7 4 4 4 8 3 7 4 8 4 8 4 11 4 8 4 7 3 12 4 11 4 12 4 15 4 15 4 20 3 22 4 123 0 23 -4 19 -3 15 -4 15 -4 12 -4 11 -4 12 -4 8 -3 7 -4 12 -4 7 -4 8 -4 8 -4 7 -3 4 -4 8 -4 7 -4 4 -4 8 -3 4 -4 7 -4 4 -4 4 -4 8 -4 3 -3 4 -4 4 -4 8 -4 3 -4 4 -4 4 -3 4 -4 4 -4 4 -4 3 -4 4 -3 4 -4 4 -4 4 -4 4 -4 3 -4 4 -7 4 -4 4 -4 4 -4 3 -7 4 -4 4 -4 4 -8 4 -3 4 -8 3 -4 4 -8 4 -7 4 -4 4 -8 4 -7 3 -8 4 -8 4 -11 4 -8 4 -7 3 -12 4 -11 4 -12 4 -15 4 -15 4 -20 3 -22 0 -123 -3 -23 -4 -19 -4 -15 -4 -15 -4 -12 -4 -11 -3 -12 -4 -7 -4 -8 -4 -12 -4 -7 -3 -8 -4 -8 -4 -3 -4 -8 -4 -8 -4 -7 -3 -4 -4 -8 -4 -4 -4 -7 -4 -4 -4 -4 -3 -8 -4 -3 -4 -4 -4 -4 -4 -8 -3 -3 -4 -4 -4 -4 -4 -4 -4 -4 -4 -4 -3 -3 -4 -4 -4 -4 -4 -4 -4 -4 -4 -4 -7 -3 -4 -4 -4 -4 -4 -4 -3 -4 -8 -3 -4 -4 -8 -4 -3 -4 -4 -4 0 -4 4 -3 3 -4 4 -4 4 -4 4 -4 4 -4 4 -3 3 -4 4 -4 4 -4 4 -4 4 -3 3 -4 4 -4 4 -4 4 -4 4 -4 4 -3 3 -4 4 -4 4 -4 4 -4 4 -4 4 -3 3 -4 4 -4 4 -4 4 -4 4 -3 3 -4 4 -4 4 -4 4 -4 4 -4 4 -3 3 -4 4 -4 4 -4 4 -4 4 -4 4 -3 3 -4 4 -4 4 -4 4 -4 4 -3 3 -4 4 -4 4 -4 4 -4 4 -4 4 -3 3 -4 4 -4 4 -4 4 -4 4 -4 4 -3 3 -4 4 -4 8 0 4 4 3 4 4 3 4 4 4 4 4 4 4 4 3 4 4 3 4 4 4 4 4 4 4 4 3 4 4 3 4 4 4 4 4 4 3 4 4 3 4 4 4 4 4 161 4 7 3 8 4 4 4 4 4 3 4 4 7 4 8 4 54 0 -4 76 -4 4 -4 4 -4 4 -4 4 -3 4 -4 3 -4 4 -4 4 -4 4 -4 4 -3 3 -4 4 -4 4 -4 4 -4 4 -3 7 -4 4 -4 8 -4 4 -4 7 -4 12 -3 7 -4 16 -4 30 0 8 4 440 4 15 3 11 4 8 4 8 4 7 4 4 4 4 3 8 4 3 4 4 4 4 4 4 3 4 4 4 8 3 4 4 4 4 7 4 8 4 8 4 11 3 15 4 620 0 15 -4 11 -3 8 -4 8 -4 7 -4 4 -4 4 -4 8 -3 3 -4 4 -4 4 -4 4 -4 4 -4 4 -3 3 -8 4 -4 4 -4 4 -7 4 -8 4 -8 3 -11 4 -15 0 -478 -4 -16 -3 -7 -4 -12 -4 -7 -4 -4 -4 -8 -4 -4 -3 -7 -4 -4 -4 -4 -4 -4 -4 -4 -4 -3 -3 -4 -4 -4 -4 -4 -4 -4 -4 -3 -3 -4 -4 -4 -4 -4 -4 -4 -4 -4 -4 -76 54 0 8 -4 7 -4 4 -4 4 -3 4 -4 4 -4 3 -8 4 -7 0 -169 -4 -7 -3 -8 -4 -4 -4 -3 -4 -4 -4 -4 -7 -4 -8 -4 -520 -4 4 -3 4 -4 3 -4 4 -4 4 -4 4 -4 4 -3 4 -4 3 -4 4 -4 4 -4 4 -3 4 -4 3 -4 4 -4 4 -4 4 -4 4 -3 4 -4 3 -4 4 -4 4 -4 4 -4 4 -3 4 -4 3 -4 4 -4 4 -4 4 -3 4 -4 3 -4 4 -4 4 -4 4 -4 4 -3 4 -4 3 -4 4 -4 4 -4 4 -4 4 -3 4 -4 3 -4 4 -4 4 -4 4 -3 4 -4 3 -4 4 -4 4 -4 4 -4 4 -3 4 -4 3 -4 4 -4 4 -4 4 -3 4 -4 4 -4 3 -4 4 -4 4 -4 4 -3 4 -4 3 -4 4 -4 4 -4 4 -4 4 -3 4 -4 3 -4 4 -4 4 -4 4 -3 4 -4 4 -4 3 -4 4 -4 8 0 4 4 3 4 4 4 4 4 4 3 4 4 4 4 3 4 4 4 4 3 4 4 4 4 4 4 3 4 4 4 4 3 4 4 4 4 3 4 4 4 4 4 4 3 4 4 4 4 3 4 4 4 4 3 4 4 4 4 4 4 3 4 4 4 4 0 4 -12 4 -19 3 -19 4 -19 4 -19 4 -19 4 -20 4 -19 3 -19 4 -19 4 -19 4 -19 4 -19 4 -19 3 -20 4 -19 4 -19 4 -19 4 -19 3 -19 4 -19 4 -19 4 -19 4 -20 4 -19 3 -19 4 -19 4 -19 0 -8 -8 0 -19 4 -19 4 -19 4 -19 4 -19 3 -19 4 -19 4 -20 4 -19 4 -19 4 -19 3 -19 4 -19 4 -19 4 -19 4 -19 3 -20 4 -19 4 -19 4 -19 4 -19 4 -19 3 -19 4 -19 4 -20 4 -19 4 -19 4 -11 3 0 4 4 4 3 4 4 4 4 3 4 4 4 4 4 4 3 4 4 4 4 3 4 4 4 4 3 4 4 4 4 4 4 3 4 4 4 4 3 4 4 4 4 3 4 4 4 4 4 4 3 4 4 4 4 3 4 4 4 4 3 4 4 4 4 4 0 7 -4 4 -4 4 -3 4 -4 3 -4 4 -4 4 -4 4 -3 4 -4 4 -4 3 -4 4 -4 4 -4 4 -3 4 -4 4 -4 3 -4 4 -4 4 -4 4 -3 4 -4 3 -4 4 -4 4 -4 4 -3 4 -4 4 -4 3 -4 4 -4 4 -4 4 -3 4 -4 4 -4 3 -4 4 -4 4 -4 4 -3 4 -4 3 -4 4 -4 4 -4 4 -3 4 -4 4 -4 3 -4 4 -4 4 -4 4 -3 4 -4 4 -4 3 -4 4 -4 4 -3 4 -4 4 -4 3 -4 4 -4 4 -4 4 -3 4 -4 4 -4 3 -4 4 -4 4 -4 4 -3 4 -4 4 -4 3 -4 4 -4 4 -3 4 -4 4 -4 3 -4 4 -4 4 -4 4 -3 4 -4 4 -4 3 -8 0 -4 -3 -3 -4 -4 -4 -4 -4 -4 -4 -4 -4 -3 -3 -4 -4 -4 -4 -4 -4 -4 -4 -4 -3 -3 -4 -4 -4 -4 -4 -4 -4 -4 -4 -4 -3 -3 -4 -4 -4 -4 -4 -4 -4 -4 -4 -3 -3 -4 -4 -4 -4 -4 -4 -4 -4 -4 -3 -3 -4 -4 -4 -4 -4 -4 -4 -4 -4 -4 -3 -3 -4 -4 -4 -4 -4 -4 -4 -4 -4 -3 -3 -4 -4 -4 -4 -4 -4 -4 -4 -4 -3 -3 -4 -4 -4 -4 -4 -4 -4 -4 -4 -4 -3 -3 -4 -4 -4 -8 0 -4 4 -3 4 -4 3 -4 4 -4 4 -4 4 -4 4 -3 4 -4 3 -4 4 -4 4 -4 4 -4 4 -3 3 -4 4 -4 4 -4 4 -4 4 -3 4 -215 3 -19 4 -15 4 -11 4 -12 4 -8 4 -7 3 -8 4 -7 4 -8 4 -8 4 -4 3 -7 4 -4 4 -4 4 -8 4 -3 4 -4 3 -4 4 -4 4 -4 4 -3 4 -4 4 -4 3 -4 4 -4 -153 199 0 19 -4 15 -3 12 -4 11 -4 8 -4 8 -4 7 -4 8 -3 8 -4 7 -4 4 -4 8 -4 4 -3 3 -4 8 -4 4 -4 4 -4 3 -4 4 -3 4 -4 4 -4 4 -4 4 -4 3 -4 4 -3 4 -4 4 -8 4 -4 4 -3 3 -8 4 -4 4 -8 4 -7 4 -8 3 -8 4 -7 4 -8 4 -11 4 -12 4 -15 3 -19 0 -77 -260 0 -19 4 -15 4 -11 4 -12 4 -8 3 -7 4 -8 4 -7 4 -8 4 -8 4 -4 3 -7 4 -4 4 -4 4 -8 4 -3 4 -4 3 -4 4 -4 4 -4 4 -3 4 -4 3 -4 4 -4 4 -4 -46 -4 -19 -3 -15 -4 -12 -4 -11 -4 -8 -4 -7 -4 -8 -3 -8 -4 -7 -4 -8 -4 -4 -4 -7 -3 -4 -4 -4 -4 -8 -4 -4 -4 -3 -4 -4 -3 -4 -4 -4 -4 -4 -4 -4 -4 -3 -4 -4 -3 -4 -4 -4 -8 -4 -4 -3 -3 -4 -8 -4 -4 -4 -8 -4 -7 -4 -8 -3 -8 -4 -7 -4 -8 -4 -11 -4 -12 -4 -15 -3 -15 -4 -264 0 0 76z"/>
  </g>
 </g>
</svg>
