<?xml version="1.0" encoding="UTF-8"?>
<!DOCTYPE svg PUBLIC "-//W3C//DTD SVG 1.1//EN" "http://www.w3.org/Graphics/SVG/1.1/DTD/svg11.dtd">
<!-- Creator: CorelDRAW X7 -->
<svg xmlns="http://www.w3.org/2000/svg" xml:space="preserve" width="2.5in" height="2.5in" version="1.1" style="shape-rendering:geometricPrecision; text-rendering:geometricPrecision; image-rendering:optimizeQuality; fill-rule:evenodd; clip-rule:evenodd"
viewBox="0 0 2500 2500"
 xmlns:xlink="http://www.w3.org/1999/xlink">
 <defs>
  <style type="text/css">
   <![CDATA[
    .fil0 {fill:none}
    .fil2 {fill:#D4584A}
    .fil1 {fill:#D4584A;fill-rule:nonzero}
   ]]>
  </style>
 </defs>
 <g id="Layer_x0020_1">
  <metadata id="CorelCorpID_0Corel-Layer"/>
  <rect class="fil0" width="2500" height="2500"/>
  <path class="fil1" d="M1017 456c21,-10 53,-14 87,-17 43,-4 87,-9 104,-28 13,-15 27,-46 40,-76 16,-34 31,-68 46,-78l3 -2 2 2c16,10 32,46 48,82 12,28 24,55 35,68 9,12 33,21 62,27 42,9 92,13 123,13l2 0 2 2 8 12 2 3 -2 2c-10,15 -30,34 -53,54 -36,32 -76,69 -76,93l0 7 26 164 1 5 -6 0c-23,0 -60,-21 -94,-40 -30,-17 -59,-33 -73,-33l0 0 -15 0 0 0c-15,0 -44,16 -74,34 -34,19 -69,39 -91,40l-5 0 0 -6 26 -163 -2 -7 0 -1 0 0c0,-26 -38,-58 -72,-88 -27,-24 -52,-46 -57,-63l-1 -4 4 -2zm88 -7c-31,3 -60,6 -80,14 7,14 29,34 53,54 35,31 74,65 75,95l1 8 1 1 0 1 -25 157c20,-3 50,-21 80,-38 31,-18 62,-35 79,-35l0 0 15 0 0 0c17,0 46,16 78,34 30,17 63,36 84,39l-26 -158 0 0 0 0 0 -8c0,-29 42,-66 80,-101 20,-18 39,-35 49,-48l-5 -7c-31,0 -81,-4 -122,-13 -31,-7 -57,-17 -68,-31 -11,-14 -24,-42 -36,-70 -14,-32 -29,-64 -41,-76 -13,11 -26,41 -40,72 -13,31 -27,63 -42,79 -20,22 -66,26 -110,31zm-393 1545c0,-10 5,-18 11,-23 7,-6 16,-10 26,-10l4 0 0 0c6,0 13,4 18,10 6,5 10,13 10,19l0 0 0 11 0 0c0,8 -5,15 -11,20 -7,6 -17,9 -25,9 -9,0 -17,-4 -23,-11 -6,-7 -10,-16 -10,-25zm18 -16c-5,4 -8,9 -8,16 0,7 3,14 7,18 4,5 10,8 16,8 6,0 13,-3 19,-7 4,-3 7,-7 7,-12l0 0 0 -11 0 0c0,-4 -3,-8 -7,-12 -4,-4 -8,-7 -11,-7l0 0 -4 0c-8,0 -14,3 -19,7zm-66 19l0 0c0,19 10,40 24,55 14,16 32,27 49,27l0 0 0 0 16 0c17,0 36,-10 51,-24 15,-13 26,-31 26,-46l0 -27c0,-18 -11,-35 -26,-48l0 0c-16,-13 -38,-21 -59,-21l-8 0c-18,0 -36,10 -50,26 -14,16 -23,38 -23,58zm-10 0l0 0c0,-23 10,-47 26,-65 15,-17 36,-29 57,-29l8 0c24,0 48,9 65,24l0 0c18,14 30,34 30,55l0 27c0,18 -12,38 -29,54 -17,15 -39,26 -58,26l-16 0 0 0 0 -1c-20,1 -41,-12 -57,-29 -15,-17 -26,-40 -26,-62zm671 -551c0,38 48,47 111,47 32,0 68,-2 103,-5 36,-2 72,-5 105,-5 68,0 119,11 119,57l0 0 0 19 0 0c0,45 -42,53 -91,53l0 0c-12,0 -26,-1 -39,-1 -12,-1 -24,-1 -35,-1 -33,0 -58,4 -58,24l0 8c0,16 22,19 51,19 12,0 25,-1 38,-1 14,-1 28,-1 42,-1 49,0 92,8 92,53l0 16c0,45 -42,53 -92,53 -13,0 -28,-1 -42,-1l0 0c-14,-1 -26,-2 -38,-2 -29,0 -51,4 -51,20l0 8c0,24 33,23 68,23 48,0 101,0 101,55l0 12c0,55 -53,55 -101,55 -35,-1 -68,-1 -68,23l0 8c0,15 20,17 42,19 32,2 68,6 68,47l0 32c0,51 -68,55 -119,58 -5,1 -10,1 -15,1 -16,2 -31,3 -46,4 -42,4 -88,8 -126,8l-75 0c-30,0 -59,-1 -86,-3 -28,-1 -55,-4 -80,-8 -17,-2 -35,-4 -52,-6 -9,-1 -18,-2 -25,-2 -13,-2 -28,-6 -41,-9 -13,-3 -24,-6 -33,-7l-7 -1 3 -6c13,-27 10,-171 8,-261 -1,-25 -1,-46 -1,-58 0,-24 0,-42 0,-59 0,-35 0,-70 0,-105 0,-36 29,-62 54,-83 6,-5 12,-11 17,-16 49,-49 89,-93 134,-142l24 -27 0 0c8,-9 21,-27 37,-50 40,-54 94,-129 119,-129l0 0 11 0 0 0 0 0c12,0 24,6 33,15 9,9 15,21 15,33l0 0 0 4c0,22 -19,67 -38,112 -18,42 -36,84 -36,103zm111 57c-69,0 -121,-11 -121,-57 0,-21 18,-64 37,-107 19,-44 37,-88 37,-108l0 -4 0 0c0,-9 -4,-19 -12,-26 -7,-7 -16,-12 -26,-12l0 0 0 0 -11 0 0 0c-20,0 -72,73 -111,125 -16,23 -29,42 -37,50l0 0 -25 27c-45,50 -85,94 -134,144 -5,5 -11,10 -18,16 -22,20 -50,44 -50,75 0,35 0,70 0,105 0,22 0,44 0,59 0,14 0,34 1,58 2,85 4,219 -7,259 8,1 18,4 28,6 13,4 27,7 40,9 8,1 16,1 25,2 17,2 36,4 53,6 25,4 51,7 78,8 28,2 56,3 86,3l75 0c38,0 83,-4 125,-8 17,-1 33,-3 46,-4 5,0 10,0 15,-1 47,-3 110,-7 110,-48l0 -32c0,-32 -31,-35 -59,-38 -27,-2 -51,-4 -51,-28l0 -8c0,-34 37,-34 78,-33 43,0 91,0 91,-45l0 -12c0,-45 -48,-45 -91,-45 -41,0 -78,1 -78,-33l0 -8c0,-24 26,-30 61,-30 11,0 24,1 38,2 14,0 28,1 42,1 44,0 82,-7 82,-43l0 -16c0,-37 -38,-43 -82,-43 -14,0 -28,0 -42,1 -13,0 -26,1 -38,1 -35,0 -61,-5 -61,-29l0 -8c0,-29 30,-34 68,-34 11,0 23,0 36,1 12,0 25,1 38,1l0 0c44,0 81,-6 81,-43l0 0 0 -19 0 0c0,-38 -47,-47 -109,-47 -32,0 -68,3 -104,5 -36,3 -72,5 -104,5zm-1136 19l0 16 16 16 323 0c17,0 35,0 54,-1 22,-1 45,-2 67,-2 76,0 146,11 146,75l0 450c0,63 -72,75 -150,75 -25,0 -51,-1 -75,-2 -21,-1 -40,-2 -58,-2l-172 0 -86 0c-8,0 -15,0 -21,0 -23,-1 -29,-1 -44,17l0 15c1,2 1,3 2,4 6,7 11,13 24,13l509 0c29,0 47,-12 62,-22 12,-7 21,-13 32,-13 6,0 44,8 78,15 23,5 44,10 52,11 10,2 35,3 62,5 37,2 76,4 87,8l120 0 2 0c25,-2 220,-13 243,-17 38,-5 71,-14 94,-33 22,-18 36,-46 36,-90 0,-25 -8,-40 -17,-56l-2 -4 -3 -5 5 -2c18,-10 36,-21 50,-38 13,-15 21,-36 21,-63 0,-20 -4,-31 -8,-44 -3,-6 -5,-13 -7,-22l-1 -4 5 -2c16,-3 33,-17 46,-34 12,-17 20,-38 20,-58l0 -28c0,-9 -4,-20 -10,-30 -7,-13 -16,-24 -23,-28l-4 -3 3 -4c2,-3 4,-7 7,-11 11,-15 27,-36 27,-53l0 -27c0,-26 -13,-52 -31,-71 -20,-20 -46,-34 -70,-34l-324 0 -6 0 1 -5c1,-21 19,-62 36,-102 16,-39 32,-77 31,-89l0 0 -5 -46 -4 -6c-19,-29 -40,-61 -85,-61l-27 0c-38,0 -67,43 -89,75 -5,7 -9,14 -14,20 -21,27 -40,52 -60,77 -11,13 -21,26 -30,37 -15,19 -91,99 -145,155l-53 55 -1 4 -3 0 -8 0 -4 0 -1 -4c-3,-11 -16,-21 -33,-28 -21,-10 -47,-15 -68,-15l-485 0c-20,0 -26,6 -34,16zm-10 18l0 -20 0 -2 1 -1 1 -1c10,-12 17,-20 42,-20l485 0c22,0 49,6 72,15 18,8 32,19 37,32l3 0c6,-8 27,-29 52,-56 53,-56 130,-135 145,-154 11,-15 20,-26 29,-37 20,-25 39,-50 60,-77 5,-6 9,-13 14,-20 23,-34 54,-79 97,-79l27 0c51,0 73,35 94,66 1,2 2,4 4,7l1 1 0 1 5 47 0 0c1,15 -15,54 -32,94 -15,36 -31,73 -35,93l319 0c27,0 55,15 77,37 20,21 34,49 34,78l0 27c0,20 -17,43 -29,59 -1,3 -3,5 -4,7 7,6 15,16 22,28 6,12 11,24 11,35l0 28c0,22 -9,45 -22,64 -13,17 -30,31 -47,37 1,6 3,11 5,16 5,13 9,26 9,47 0,30 -9,52 -24,70 -13,16 -30,28 -48,38l0 0c9,17 18,33 18,60 0,47 -15,77 -40,98 -25,20 -59,29 -99,35 -23,4 -218,15 -243,17l-3 0 0 0 -121 0 -2 0 -1 -1c-5,-3 -46,-5 -83,-7 -28,-2 -53,-3 -63,-5 -9,-1 -30,-6 -53,-11 -34,-7 -71,-15 -76,-15 -8,0 -16,5 -26,11 -16,11 -37,24 -68,24l-509 0c-18,0 -24,-8 -31,-17 -2,-2 -3,-3 -4,-4l-1 -2 0 -2 0 -19 0 -2 1 -2c20,-22 26,-22 53,-21 6,0 12,0 21,0l86 0 172 0c17,0 37,1 59,2 24,1 49,2 74,2 73,0 140,-10 140,-65l0 -450c0,-55 -65,-65 -136,-65 -22,0 -45,1 -66,2 -20,1 -39,1 -55,1l-325 0 -2 0 -1 -1 -20 -20 -1 -1 0 -2zm61 -595c19,-9 45,-11 73,-14 38,-3 79,-6 101,-29 9,-9 21,-35 33,-61 16,-36 34,-73 49,-77l4 -1 2 5c2,8 17,41 33,73 16,31 32,60 37,65l0 0c8,8 32,16 60,22 38,7 83,12 107,12l6 0 -1 6c-1,20 -27,42 -54,65 -29,24 -59,49 -59,71l0 19 22 140 1 7 -7 -1c-20,-4 -50,-21 -80,-37 -30,-17 -58,-33 -70,-33l0 0 -12 0c-12,0 -42,17 -72,34 -30,18 -61,35 -76,37l-6 0 0 -5c0,-28 6,-53 12,-78 6,-26 12,-51 12,-79 0,-20 -39,-56 -71,-86 -24,-21 -44,-39 -46,-50l-1 -4 3 -1zm73 -4c-24,2 -47,4 -64,11 6,9 22,24 41,41 34,31 75,68 75,93 0,29 -6,55 -12,81 -6,23 -11,45 -12,70 15,-5 41,-19 67,-34 31,-18 62,-36 77,-36l12 0 0 0c14,0 44,17 75,34 25,14 52,28 70,34l-21 -133 0 0 0 0 0 -20c0,-26 32,-53 62,-79 23,-19 45,-38 50,-53 -26,0 -67,-5 -103,-13 -30,-6 -56,-14 -66,-24l0 0c-5,-6 -22,-36 -38,-67 -13,-28 -27,-56 -32,-69 -10,8 -24,39 -38,68 -13,27 -25,53 -35,64 -24,25 -67,29 -108,32zm-124 -6l0 32c6,8 11,15 16,22 10,13 19,26 38,41 5,4 28,24 44,40 10,10 18,20 18,25l0 0 -22 144 0 7c0,11 7,24 16,33 10,10 23,17 33,17l16 0c11,0 104,-49 135,-66l0 0 8 -4 2 -1 2 1c4,2 10,6 18,10 37,20 109,60 121,60l15 0c13,0 25,-6 34,-16 10,-11 16,-24 16,-37l0 -1 0 -1 3 -7 -22 -120 0 0 0 -1 0 -27 0 -4 3 -1c11,-3 42,-31 69,-61 23,-24 41,-49 41,-59l0 -20c0,-21 -19,-35 -46,-45 -41,-16 -100,-20 -137,-20l-3 0 -1 -3c-5,-8 -10,-21 -16,-34 -22,-51 -55,-123 -89,-123l-16 0c-39,0 -71,74 -93,124 -6,13 -12,25 -16,33l-1 3 -3 0c-33,0 -56,4 -78,9 -11,2 -21,4 -32,6 -48,7 -49,9 -57,21 -3,6 -8,13 -16,23zm-10 34l0 -35 0 -2 1 -2c9,-10 13,-17 17,-23 9,-16 11,-18 63,-26 12,-2 22,-4 32,-6 22,-4 44,-9 77,-9 3,-8 8,-18 13,-30 24,-53 58,-130 103,-130l16 0c41,0 75,76 98,129 5,12 10,23 14,31 38,0 96,5 138,20 30,12 52,29 52,55l0 20c0,13 -20,40 -43,66 -26,28 -56,55 -70,62l0 24 22 120 0 2 -1 1 -2 7c0,16 -7,32 -18,43 -11,12 -26,20 -42,20l-15 0c-14,0 -88,-40 -125,-61 -7,-4 -12,-7 -16,-9l-5 3 0 0c-32,17 -126,67 -140,67l-16 0c-13,0 -28,-8 -40,-19 -11,-12 -19,-27 -19,-41l0 -7 0 -1 0 0 22 -145 0 -1 0 0c0,0 -6,-7 -15,-15 -16,-16 -38,-36 -43,-39 -20,-15 -30,-29 -40,-44 -5,-7 -10,-14 -17,-22l-1 -1 0 -2zm1452 -29c25,-2 76,-7 116,-15 25,-5 45,-12 53,-19 4,-5 20,-34 36,-65 16,-32 32,-65 34,-73l1 -5 5 1c15,4 32,41 48,77 12,26 24,52 33,61 21,22 60,25 98,28 28,2 55,5 76,15l4 2 -1 3c-3,11 -25,31 -49,53 -34,31 -72,66 -71,83l26 156 1 6 -7 0c-15,-2 -46,-19 -76,-37 -30,-17 -60,-34 -72,-34l-12 0c-12,0 -40,16 -70,32 -29,17 -60,34 -80,38l-7 1 1 -7 22 -140 0 -19c0,-23 -29,-47 -57,-70 -27,-22 -53,-44 -56,-66l-1 -5 5 -1zm118 -5c-38,7 -84,12 -111,15 6,17 28,35 51,54 30,25 61,50 61,78l0 20 0 0 0 1 -21 132c18,-6 45,-20 70,-34 31,-17 61,-34 75,-34l12 0c15,0 46,18 77,36 25,14 51,29 66,33l-25 -149 0 0c-2,-22 39,-59 74,-91 20,-18 38,-35 44,-44 -18,-8 -43,-10 -68,-12 -40,-3 -81,-7 -104,-31 -10,-11 -22,-37 -35,-64 -13,-29 -28,-60 -38,-68 -5,13 -18,41 -32,69 -16,31 -33,61 -38,67 -9,9 -32,16 -58,22zm434 32l0 -32c-8,-9 -13,-16 -16,-22 -8,-13 -10,-17 -58,-22 -13,-1 -26,-4 -39,-6 -21,-5 -44,-9 -70,-9l-3 0 -2 -3c-4,-8 -9,-20 -15,-33 -22,-50 -55,-124 -94,-124l-8 0c-43,0 -73,68 -95,119 -6,15 -12,28 -18,38l-1 3 -3 0c-37,0 -96,4 -137,19 -27,10 -46,25 -46,46l0 20 0 0c0,22 41,59 73,88 22,20 41,36 41,45l0 0 -2 20 0 0 -18 121 0 8c0,13 6,26 16,37 9,10 21,16 34,16l8 0c21,0 87,-37 125,-58l0 0c9,-5 16,-9 21,-12l2 -1 3 1 7 4 0 0c31,17 124,66 135,66l16 0c9,0 20,-6 30,-15 12,-9 22,-21 22,-27l-26 -155 0 0c-1,-7 6,-16 16,-27 16,-16 39,-35 45,-40 19,-15 29,-28 39,-42 5,-8 11,-15 18,-23zm10 -33l0 35 0 2 -2 1c-7,8 -12,16 -18,23 -10,15 -21,29 -40,45 -7,5 -29,23 -45,39 -8,8 -13,15 -13,18l0 0 26 156 0 1 0 0c0,9 -11,23 -25,35 -12,10 -26,17 -37,17l-16 0c-14,0 -108,-50 -140,-67l0 0 -5 -3c-4,3 -11,7 -18,11l0 0c-38,21 -106,59 -130,59l-8 0c-15,0 -30,-8 -42,-20 -11,-12 -18,-28 -18,-43l0 -8 0 -1 0 0 18 -121 2 -19c-1,-4 -17,-19 -37,-37 -34,-31 -77,-70 -77,-96l0 0 0 -20c0,-26 22,-43 52,-55 42,-16 100,-20 138,-20 5,-10 10,-22 16,-35 23,-54 54,-125 104,-125l8 0c45,0 80,77 103,130 5,12 10,22 14,30 26,0 48,5 69,9 13,2 26,5 38,6 53,6 55,10 65,27 4,6 8,13 16,22l2 2 0 2zm-993 -727l-29 0c-4,3 -8,6 -11,8 -15,10 -21,15 -26,20 -4,5 -7,11 -12,23 -3,6 -7,15 -13,26 -5,11 -11,22 -16,33 -11,22 -21,43 -32,63l-2 3 -3 0c-16,0 -34,2 -53,4 -25,3 -49,8 -67,11l0 0 -7 2c-35,7 -71,14 -71,52l0 24c0,21 36,54 70,85l0 0c24,22 46,42 54,57l1 2 0 1 -23 145 0 15 0 0c0,14 6,29 15,40 9,10 22,18 34,18l0 0 24 0c12,0 49,-22 84,-41 31,-18 59,-34 69,-34 9,0 37,16 68,34 35,19 73,41 84,41l32 0c6,0 17,-9 26,-19 9,-10 16,-22 16,-31l0 0 0 -27 -24 -141 0 -1 1 -2c8,-15 30,-35 54,-57 34,-30 70,-64 70,-85l0 0 0 -24c0,-50 -69,-55 -127,-60 -32,-2 -60,-4 -74,-14 -8,-5 -29,-50 -42,-77 -4,-8 -7,-14 -8,-17 -6,-11 -10,-20 -13,-26 -5,-12 -8,-18 -12,-23l0 0c-4,-5 -11,-10 -26,-20 -3,-2 -8,-5 -11,-8zm-30 -10l31 0 2 0 1 1c6,4 10,7 13,9 15,10 22,15 28,22l0 0c5,6 8,12 13,24 3,7 7,16 13,26 2,4 5,10 8,18 13,26 33,69 39,73 11,8 38,10 69,12 62,5 136,11 136,70l0 24 0 0c0,26 -38,60 -73,92 -23,21 -44,40 -52,54l24 139 0 0 0 0 -1 28 1 0c0,11 -8,26 -18,37 -11,13 -25,23 -34,23l-32 0c-14,0 -53,-22 -89,-43 -29,-16 -57,-32 -63,-32 -7,0 -35,16 -64,32 -36,21 -75,43 -89,43l-24 0 0 0c-15,0 -31,-9 -42,-22 -10,-13 -17,-30 -17,-46l0 0 0 -16 0 0 0 0 23 -143c-8,-14 -29,-33 -52,-54l0 0c-35,-32 -73,-66 -73,-92l0 -24c0,-46 40,-54 79,-62l7 -1 0 0c18,-4 43,-9 68,-12 18,-2 36,-4 51,-4 11,-20 21,-40 31,-60 5,-11 11,-22 16,-34 6,-10 10,-19 13,-26 6,-12 9,-18 13,-24 6,-7 13,-12 28,-22 4,-3 9,-6 13,-9l1 -1 2 0z"/>
  <path class="fil2" d="M1019 460c47,-23 160,-10 193,-46 29,-32 58,-135 85,-153 25,17 56,117 81,149 23,30 135,42 189,42l8 12c-26,38 -130,107 -130,149l0 8 26 163c-41,0 -134,-73 -167,-73l-15 0c-33,0 -126,73 -165,74l26 -164 -2 -8c0,-50 -119,-115 -129,-153zm-302 1534c0,-16 15,-28 32,-28l4 0c9,0 23,14 23,24l0 11c0,13 -17,24 -31,24 -16,0 -28,-15 -28,-31zm-58 3c0,41 41,87 78,87l16 0c37,0 82,-42 82,-75l0 -27c0,-39 -46,-75 -90,-75l-8 0c-40,0 -78,47 -78,90zm661 -551c0,124 438,-30 438,94l0 19c0,96 -223,5 -223,75l0 8c0,61 223,-25 223,70l0 16c0,96 -223,8 -223,70l0 8c0,63 169,-14 169,78l0 12c0,92 -169,14 -169,78l0 8c0,44 110,-1 110,66l0 32c0,51 -80,51 -129,54 -53,4 -119,12 -172,12l-75 0c-60,0 -115,-3 -165,-11 -25,-4 -56,-6 -78,-8 -25,-3 -55,-15 -74,-16 17,-35 8,-258 8,-321 0,-55 -1,-110 0,-164 0,-43 46,-71 69,-95 59,-58 104,-109 159,-170 26,-29 120,-177 152,-177l11 0c21,0 43,22 43,43l0 4c0,42 -74,174 -74,215zm-1025 74l0 20 19 19c109,0 217,0 325,0 94,0 262,-27 262,67l0 450c0,96 -182,66 -278,66 -57,0 -114,0 -172,0 -28,0 -57,0 -86,0 -45,0 -48,-6 -70,20l0 19c8,10 13,20 31,20l509 0c50,0 71,-35 94,-35 10,0 109,23 130,26 23,4 138,7 148,13l121 0c0,0 221,-13 246,-17 77,-11 134,-38 134,-128 0,-28 -10,-44 -20,-63 38,-20 74,-48 74,-105 0,-31 -10,-43 -15,-67 34,-8 70,-53 70,-97l0 -28c0,-21 -21,-53 -35,-62 10,-15 35,-44 35,-67l0 -27c0,-56 -56,-110 -106,-110l-324 0c3,-39 69,-164 67,-192l-5 -46c-21,-32 -42,-71 -94,-71l-27 0c-49,0 -83,66 -107,97 -31,40 -59,75 -90,114 -23,30 -197,209 -198,212l-8 0c-7,-27 -67,-47 -106,-47l-485 0c-23,0 -29,7 -39,19zm58 -571c45,-21 137,-3 176,-44 22,-23 57,-130 79,-136 4,17 61,130 71,140 21,21 128,36 171,36 -3,39 -113,92 -113,137l0 20 22 140c-38,-8 -125,-70 -151,-70l-12 0c-27,0 -119,68 -149,71 0,-55 24,-101 24,-157 0,-38 -111,-114 -118,-137zm-58 -15l0 35c20,23 26,42 56,65 8,6 62,54 60,60l-22 145 0 7c0,25 30,55 54,55l16 0c14,0 126,-60 145,-70 19,10 125,70 141,70l15 0c28,0 55,-29 55,-58l3 -9 -22 -121 0 -27c20,-5 113,-100 113,-125l0 -20c0,-58 -126,-70 -188,-70 -21,-40 -61,-160 -109,-160l-16 0c-53,0 -92,120 -113,160 -48,0 -74,9 -111,15 -70,10 -45,10 -77,48zm1448 11c41,-3 150,-15 171,-36 10,-10 67,-123 71,-140 23,6 58,113 80,136 38,40 127,21 175,44 -6,23 -123,105 -120,137l26 157c-30,-3 -122,-71 -149,-71l-12 0c-26,0 -112,62 -151,70l22 -140 0 -20c0,-48 -108,-94 -113,-137zm556 24l0 -35c-31,-36 -9,-40 -78,-48 -35,-4 -67,-15 -110,-15 -22,-40 -61,-160 -114,-160l-8 0c-59,0 -92,113 -117,160 -62,0 -188,11 -188,70l0 20c0,39 114,117 114,133l-2 19 -18 122 0 8c0,29 27,58 55,58l8 0c27,0 122,-56 148,-70 19,10 131,70 145,70l16 0c22,0 57,-34 57,-47l-26 -156c-2,-12 49,-54 60,-62 29,-23 37,-43 58,-67zm-987 -767l-31 0c-50,35 -36,21 -65,80 -17,33 -32,64 -49,96 -36,0 -89,9 -121,15 -39,9 -82,15 -82,59l0 24c0,40 106,109 125,145l-23 144 0 16c0,31 26,63 54,63l24 0c24,0 135,-75 153,-75 17,0 128,75 152,75l32 0c16,0 47,-34 47,-55l0 -28 -24 -140c19,-36 125,-105 125,-145l0 -24c0,-84 -166,-52 -203,-78 -9,-5 -41,-77 -49,-92 -29,-59 -14,-45 -65,-80z"/>
 </g>
</svg>
